<svg id="visual" viewBox="0 0 900 600" width="900" height="600" xmlns="http://www.w3.org/2000/svg" xmlns:xlink="http://www.w3.org/1999/xlink" version="1.1"><path d="M0 79L13.7 79C27.3 79 54.7 79 82 74C109.3 69 136.7 59 163.8 68C191 77 218 105 245.2 111C272.3 117 299.7 101 327 98C354.3 95 381.7 105 409 103C436.3 101 463.7 87 491 79C518.3 71 545.7 69 573 71C600.3 73 627.7 79 654.8 79C682 79 709 73 736.2 78C763.3 83 790.7 99 818 98C845.3 97 872.7 79 886.3 70L900 61L900 0L886.3 0C872.7 0 845.3 0 818 0C790.7 0 763.3 0 736.2 0C709 0 682 0 654.8 0C627.7 0 600.3 0 573 0C545.7 0 518.3 0 491 0C463.7 0 436.3 0 409 0C381.7 0 354.3 0 327 0C299.7 0 272.3 0 245.2 0C218 0 191 0 163.8 0C136.7 0 109.3 0 82 0C54.7 0 27.3 0 13.7 0L0 0Z" fill="#6198ff"></path><path d="M0 331L13.7 317C27.3 303 54.7 275 82 261C109.3 247 136.7 247 163.8 270C191 293 218 339 245.2 337C272.3 335 299.7 285 327 274C354.3 263 381.7 291 409 296C436.3 301 463.7 283 491 258C518.3 233 545.7 201 573 204C600.3 207 627.7 245 654.8 252C682 259 709 235 736.2 230C763.3 225 790.7 239 818 231C845.3 223 872.7 193 886.3 178L900 163L900 59L886.3 68C872.7 77 845.3 95 818 96C790.7 97 763.3 81 736.2 76C709 71 682 77 654.8 77C627.7 77 600.3 71 573 69C545.7 67 518.3 69 491 77C463.7 85 436.3 99 409 101C381.7 103 354.3 93 327 96C299.7 99 272.3 115 245.2 109C218 103 191 75 163.8 66C136.7 57 109.3 67 82 72C54.7 77 27.3 77 13.7 77L0 77Z" fill="#3c80ff"></path><path d="M0 493L13.7 481C27.3 469 54.7 445 82 430C109.3 415 136.7 409 163.8 417C191 425 218 447 245.2 448C272.3 449 299.7 429 327 417C354.3 405 381.7 401 409 405C436.3 409 463.7 421 491 430C518.3 439 545.7 445 573 449C600.3 453 627.7 455 654.8 454C682 453 709 449 736.2 435C763.3 421 790.7 397 818 396C845.3 395 872.7 417 886.3 428L900 439L900 161L886.3 176C872.7 191 845.3 221 818 229C790.7 237 763.3 223 736.2 228C709 233 682 257 654.8 250C627.7 243 600.3 205 573 202C545.7 199 518.3 231 491 256C463.7 281 436.3 299 409 294C381.7 289 354.3 261 327 272C299.7 283 272.3 333 245.2 335C218 337 191 291 163.8 268C136.7 245 109.3 245 82 259C54.7 273 27.3 301 13.7 315L0 329Z" fill="#0066ff"></path><path d="M0 547L13.7 532C27.3 517 54.7 487 82 476C109.3 465 136.7 473 163.8 482C191 491 218 501 245.2 495C272.3 489 299.7 467 327 462C354.3 457 381.7 469 409 475C436.3 481 463.7 481 491 488C518.3 495 545.7 509 573 511C600.3 513 627.7 503 654.8 499C682 495 709 497 736.2 492C763.3 487 790.7 475 818 474C845.3 473 872.7 483 886.3 488L900 493L900 437L886.3 426C872.7 415 845.3 393 818 394C790.7 395 763.3 419 736.2 433C709 447 682 451 654.8 452C627.7 453 600.3 451 573 447C545.7 443 518.3 437 491 428C463.7 419 436.3 407 409 403C381.7 399 354.3 403 327 415C299.7 427 272.3 447 245.2 446C218 445 191 423 163.8 415C136.7 407 109.3 413 82 428C54.7 443 27.3 467 13.7 479L0 491Z" fill="#0059dd"></path><path d="M0 601L13.7 601C27.3 601 54.7 601 82 601C109.3 601 136.7 601 163.8 601C191 601 218 601 245.2 601C272.3 601 299.7 601 327 601C354.3 601 381.7 601 409 601C436.3 601 463.7 601 491 601C518.3 601 545.7 601 573 601C600.3 601 627.7 601 654.8 601C682 601 709 601 736.2 601C763.3 601 790.7 601 818 601C845.3 601 872.7 601 886.3 601L900 601L900 491L886.3 486C872.7 481 845.3 471 818 472C790.7 473 763.3 485 736.2 490C709 495 682 493 654.8 497C627.7 501 600.3 511 573 509C545.7 507 518.3 493 491 486C463.7 479 436.3 479 409 473C381.7 467 354.3 455 327 460C299.7 465 272.3 487 245.2 493C218 499 191 489 163.8 480C136.7 471 109.3 463 82 474C54.7 485 27.3 515 13.7 530L0 545Z" fill="#004cbb"></path></svg>